#tb 0: 1/1000
0,          0,          0,        0,     6144, 35f17db9076fa20368fddfa01543c746
0,         33,         33,        0,     6144, 61cd775dfc177262da9a91d3912e6718
0,         66,         66,        0,     6144, 8b8cf175f91425d703332b22b46c1c0e
0,        100,        100,        0,     6144, 6041afbdd81e228f8f16384d3f9e988e
0,        133,        133,        0,     6144, d30bd08897b50f518920014c7fa55df9
0,        166,        166,        0,     6144, fb67222a183876b502f93e48bb779b70
0,        200,        200,        0,     6144, 60830425ca1dcf3df4ee9c6cd75f066a
0,        233,        233,        0,     6144, 3e178df858f7fcaa2552a1c5c719b5cc
0,        266,        266,        0,     6144, 66718eb0c3981beb7c1119df8a2cd27e
0,        300,        300,        0,     6144, 7c1912448c7756f7451888050760d73d
